<svg width="31" height="30" viewBox="0 0 31 30" fill="none" xmlns="http://www.w3.org/2000/svg">
<path fill-rule="evenodd" clip-rule="evenodd" d="M16.5715 0H14.4286V9.48797L10.8743 0.690873L8.88749 1.4936L12.5338 10.5186L5.65102 3.63578L4.13579 5.15102L10.7327 11.7479L2.18362 8.01272L1.32569 9.97634L10.3716 13.9286H0.5V16.0715H10.3716L1.32569 20.0237L2.18362 21.9873L10.7326 18.2522L4.13579 24.849L5.65102 26.3642L12.5338 19.4814L8.88749 28.5065L10.8743 29.3091L14.4286 20.5121V30H16.5715V20.5121L20.1257 29.3091L22.1124 28.5065L18.4663 19.4814L25.349 26.3642L26.8642 24.849L20.2673 18.2522L28.8164 21.9873L29.6742 20.0237L20.6285 16.0715H30.5V13.9286H20.6283L29.6742 9.97634L28.8164 8.01272L20.2673 11.7479L26.8642 5.151L25.349 3.63578L18.4663 10.5186L22.1124 1.4936L20.1257 0.690873L16.5715 9.48797V0Z" fill="#FDFDFD"/>
</svg>
